<svg width="522" height="265" viewBox="0 0 522 265" fill="none" xmlns="http://www.w3.org/2000/svg">
<path fill-rule="evenodd" clip-rule="evenodd" d="M11.4076 265H0.5V0H11.4076C11.4076 5.30838 15.7206 9.61896 21.032 9.61896C26.3434 9.61896 30.6564 5.30838 30.6564 0H41.564C41.564 5.30838 45.877 9.61896 51.1884 9.61896C56.4998 9.61896 60.8128 5.30838 60.8128 0H71.7204C71.7204 5.30838 76.0335 9.61896 81.3448 9.61896C86.6562 9.61896 90.9692 5.30838 90.9692 0H101.877C101.877 5.30838 106.19 9.61896 111.501 9.61896C116.813 9.61896 121.126 5.30838 121.126 0H132.033C132.033 5.30838 136.346 9.61896 141.658 9.61896C146.969 9.61896 151.282 5.30838 151.282 0H162.19C162.19 5.30838 166.503 9.61896 171.814 9.61896C177.125 9.61896 181.438 5.30838 181.438 0H191.384C191.384 5.30838 195.697 9.61896 201.008 9.61896C206.319 9.61896 210.632 5.30838 210.632 0H221.54C221.54 5.30838 225.853 9.61896 231.164 9.61896C236.476 9.61896 240.789 5.30838 240.789 0H251.696C251.696 5.30838 256.009 9.61896 261.321 9.61896C266.632 9.61896 270.945 5.30838 270.945 0H281.853C281.853 5.30838 286.166 9.61896 291.477 9.61896C296.789 9.61896 301.102 5.30838 301.102 0H312.009C312.009 5.30838 316.322 9.61896 321.634 9.61896C326.945 9.61896 331.258 5.30838 331.258 0H342.166C342.166 5.30838 346.479 9.61896 351.79 9.61896C357.101 9.61896 361.414 5.30838 361.414 0H371.36C371.36 5.30838 375.673 9.61896 380.984 9.61896C386.295 9.61896 390.608 5.30838 390.608 0H401.516C401.516 5.30838 405.829 9.61896 411.14 9.61896C416.452 9.61896 420.765 5.30838 420.765 0H431.672C431.672 5.30838 435.985 9.61896 441.297 9.61896C446.608 9.61896 450.921 5.30838 450.921 0H461.829C461.829 5.30838 466.142 9.61896 471.453 9.61896C476.765 9.61896 481.078 5.30838 481.078 0H491.985C491.985 5.30838 496.298 9.61896 501.61 9.61896C506.921 9.61896 511.234 5.30838 511.234 0H521.5V265H511.234C511.234 259.692 506.921 255.381 501.61 255.381C496.298 255.381 491.985 259.692 491.985 265H481.078C481.078 259.692 476.765 255.381 471.453 255.381C466.142 255.381 461.829 259.692 461.829 265H450.921C450.921 259.692 446.608 255.381 441.297 255.381C435.985 255.381 431.672 259.692 431.672 265H420.765C420.765 259.692 416.452 255.381 411.14 255.381C405.829 255.381 401.516 259.692 401.516 265H390.608C390.608 259.692 386.295 255.381 380.984 255.381C375.673 255.381 371.36 259.692 371.36 265H361.414C361.414 259.692 357.101 255.381 351.79 255.381C346.479 255.381 342.166 259.692 342.166 265H331.258C331.258 259.692 326.945 255.381 321.634 255.381C316.322 255.381 312.009 259.692 312.009 265H301.102C301.102 259.692 296.789 255.381 291.477 255.381C286.166 255.381 281.853 259.692 281.853 265H270.945C270.945 259.692 266.632 255.381 261.321 255.381C256.009 255.381 251.696 259.692 251.696 265H240.789C240.789 259.692 236.476 255.381 231.164 255.381C225.853 255.381 221.54 259.692 221.54 265H210.632C210.632 259.692 206.319 255.381 201.008 255.381C195.697 255.381 191.384 259.692 191.384 265H181.438C181.438 259.692 177.125 255.381 171.814 255.381C166.503 255.381 162.19 259.692 162.19 265H151.282C151.282 259.692 146.969 255.381 141.658 255.381C136.346 255.381 132.033 259.692 132.033 265H121.126C121.126 259.692 116.813 255.381 111.501 255.381C106.19 255.381 101.877 259.692 101.877 265H90.9692C90.9692 259.692 86.6562 255.381 81.3448 255.381C76.0335 255.381 71.7204 259.692 71.7204 265H60.8128C60.8128 259.692 56.4998 255.381 51.1884 255.381C45.877 255.381 41.564 259.692 41.564 265H30.6564C30.6564 259.692 26.3434 255.381 21.032 255.381C15.7206 255.381 11.4076 259.692 11.4076 265Z" fill="#E5E5E5"/>
</svg>
